<svg id="Слой_2" data-name="Слой 2" xmlns="http://www.w3.org/2000/svg" viewBox="0 0 545.51 242.27"><defs><style>.cls-1{fill:#fff;}</style></defs><path class="cls-1" d="M226.06,48.67c-5.22-15.28-11.85-31.3-25.28-40.27C190.07,1.25,176.56.72,163.71.13,137.47-1.06,112.87,5.76,77.46,9.8c-26.28,3-50.89,17.57-62.52,41.31C10.09,61,7.52,71.83,5.26,82.6,2.18,97.25-.4,112.13.05,127.08c.69,22.54,8.28,44.44,19,64.29,9,16.7,20.84,32.77,37.73,41.39,14.24,7.26,30.7,8.57,46.67,9.15,26.61,1,53.62.23,79.27-6.94,10.46-2.93,20.83-7,29.12-14,6.48-5.49,11.45-12.57,15.51-20,12.46-23.06,16.71-49.84,15.32-75.94S234.52,73.4,226.06,48.67Zm-47.47,82.4a20,20,0,0,1-9,9L110.4,169.69a20,20,0,0,1-29-17.92V92.62a20,20,0,0,1,29-17.92l59.15,29.57A20,20,0,0,1,178.59,131.07Z" transform="translate(0 0.01)"/><path class="cls-1" d="M294.22,90.08a20.88,20.88,0,0,0,7.59,5.66,28.3,28.3,0,0,0,21.1,0,21,21,0,0,0,7.58-5.66,24.41,24.41,0,0,0,4.58-8.55,37.48,37.48,0,0,0,0-21.25,24.45,24.45,0,0,0-4.58-8.54,21,21,0,0,0-7.58-5.66,28.3,28.3,0,0,0-21.1,0,20.88,20.88,0,0,0-7.59,5.66,24.62,24.62,0,0,0-4.58,8.54,37.42,37.42,0,0,0,0,21.25A24.5,24.5,0,0,0,294.22,90.08Zm3.89-19.17q0-8.89,3.59-13.83t10.63-4.93q7,0,10.65,5t3.62,13.78q0,8.81-3.65,13.73t-10.62,4.93q-7,0-10.61-4.88T298.1,70.91Z" transform="translate(0 0.01)"/><path class="cls-1" d="M370.51,75.63a17.23,17.23,0,0,0,7.82-5.46,14.2,14.2,0,0,0,3-9.17,16.23,16.23,0,0,0-1.2-6.27,14.15,14.15,0,0,0-3.62-5.12,17.79,17.79,0,0,0-5.85-3.43,22.82,22.82,0,0,0-7.94-1.27H343.24v51.9h10V77.4h7.63L372,96.81h10.7Zm-7.73-6.81h-9.55V53.57h9.55q4.32,0,6.43,2A7.2,7.2,0,0,1,371.33,61a7.37,7.37,0,0,1-2.27,5.74A9,9,0,0,1,362.78,68.82Z" transform="translate(0 0.01)"/><polygon class="cls-1" points="397.67 74.56 420.23 74.56 420.23 66.09 397.7 66.09 397.7 53.39 421.7 53.39 421.7 44.92 387.97 44.92 387.97 96.82 422.16 96.82 422.16 88.35 397.67 88.35 397.67 74.56"/><path class="cls-1" d="M468.17,51.69A20.84,20.84,0,0,0,460.59,46a28.3,28.3,0,0,0-21.1,0,20.84,20.84,0,0,0-7.58,5.66,24.37,24.37,0,0,0-4.58,8.54,37.19,37.19,0,0,0,0,21.25A24.25,24.25,0,0,0,431.91,90a20.84,20.84,0,0,0,7.58,5.66,28.3,28.3,0,0,0,21.1,0A20.84,20.84,0,0,0,468.17,90a24.27,24.27,0,0,0,4.59-8.55,37.48,37.48,0,0,0,0-21.25A24.64,24.64,0,0,0,468.17,51.69Zm-7.52,33Q457,89.63,450,89.62T439.4,84.69q-3.61-4.93-3.62-13.78h0q0-8.85,3.67-13.78t10.62-4.93q7,0,10.63,4.93t3.62,13.78Q464.29,79.76,460.65,84.69Z" transform="translate(0 0.01)"/><path class="cls-1" d="M522.63,96.81V44.91h-10V73.32a48.38,48.38,0,0,0,.35,5.51q.39,3,1,6.27h-.23a44.42,44.42,0,0,0-2.19-5.46q-1.27-2.62-2.89-5.32L491.74,44.91H481v51.9h10V68.39a48.2,48.2,0,0,0-.35-5.5c-.25-2-.59-4.12-1-6.28h.23a43.08,43.08,0,0,0,2.2,5.47q1.26,2.63,2.88,5.31l17.71,29.42Z" transform="translate(0 0.01)"/><path class="cls-1" d="M318.65,157.4a21.15,21.15,0,0,0-5.16-3c-1.89-.8-3.77-1.51-5.62-2.12-1.23-.41-2.44-.85-3.62-1.31a16.17,16.17,0,0,1-3.15-1.62,7.79,7.79,0,0,1-2.24-2.19,5.41,5.41,0,0,1-.84-3,4.85,4.85,0,0,1,2.23-4.08q2.24-1.62,6.85-1.62a27.42,27.42,0,0,1,5.85.69,31.92,31.92,0,0,1,6.09,2l2.54-7.7a30.54,30.54,0,0,0-7-2.54,36.26,36.26,0,0,0-8.05-.84,27.5,27.5,0,0,0-8.31,1.11,16.26,16.26,0,0,0-5.7,3,11.57,11.57,0,0,0-3.27,4.55,14.58,14.58,0,0,0-1,5.54,13.35,13.35,0,0,0,1.5,6.62,15,15,0,0,0,3.77,4.51,20.21,20.21,0,0,0,5,2.92c1.79.75,3.49,1.38,5.08,1.89l3.89,1.35a17.13,17.13,0,0,1,3.39,1.58,8,8,0,0,1,2.38,2.15,5,5,0,0,1,.89,3,5.75,5.75,0,0,1-3,5.36,14.64,14.64,0,0,1-7.39,1.73,23.78,23.78,0,0,1-7-1.08,32.21,32.21,0,0,1-6.27-2.62L288,179.84a28.65,28.65,0,0,0,7.31,2.89,37.82,37.82,0,0,0,9.24,1,30.81,30.81,0,0,0,7.71-.92,17.66,17.66,0,0,0,6.12-2.85,13.65,13.65,0,0,0,5.56-11.55,13.26,13.26,0,0,0-1.47-6.51A14.74,14.74,0,0,0,318.65,157.4Z" transform="translate(0 0.01)"/><polygon class="cls-1" points="327.69 139.54 342.55 139.39 342.55 182.82 352.55 182.82 352.56 139.39 367.42 139.54 367.42 130.92 327.69 130.92 327.69 139.54"/><path class="cls-1" d="M405.22,161.79q0,6.93-2.89,10.35a11,11,0,0,1-16,0q-2.88-3.42-2.88-10.35V130.91h-10v30.8q0,11.23,5.54,16.63t15.32,5.39q9.81,0,15.35-5.39t5.54-16.63v-30.8h-10Z" transform="translate(0 0.01)"/><path class="cls-1" d="M442.56,130.91H426.39v51.9h16.17q12.93,0,19.75-6.62t6.82-19.56q0-12.56-6.82-19.14T442.56,130.91Zm16.56,25.72a24,24,0,0,1-1.15,7.89A14.56,14.56,0,0,1,454.7,170a12.62,12.62,0,0,1-5.2,3.15,22.27,22.27,0,0,1-6.93,1h-6.16V139.49h6.16a23.89,23.89,0,0,1,6.93.93,12.43,12.43,0,0,1,5.2,3,13.46,13.46,0,0,1,3.27,5.32,23.74,23.74,0,0,1,1.16,7.89Z" transform="translate(0 0.01)"/><rect class="cls-1" x="478.15" y="130.92" width="10" height="51.9"/><path class="cls-1" d="M544,146.28a24.62,24.62,0,0,0-4.58-8.54,20.88,20.88,0,0,0-7.59-5.66,28.27,28.27,0,0,0-21.09,0,20.88,20.88,0,0,0-7.59,5.66,24.45,24.45,0,0,0-4.58,8.54,37.42,37.42,0,0,0,0,21.25,24.41,24.41,0,0,0,4.58,8.55,20.88,20.88,0,0,0,7.59,5.66,28.27,28.27,0,0,0,21.09,0,20.88,20.88,0,0,0,7.59-5.66,24.5,24.5,0,0,0,4.58-8.55A37.48,37.48,0,0,0,544,146.28Zm-12.1,24.41q-3.63,4.94-10.63,4.93t-10.62-4.93Q507,165.76,507,156.91h0q0-8.85,3.62-13.78t10.62-4.93q7,0,10.63,4.93t3.62,13.78Q535.5,165.76,531.87,170.69Z" transform="translate(0 0.01)"/></svg>